<svg fill="none" height="48" viewBox="0 0 48 48" width="48" xmlns="http://www.w3.org/2000/svg"><path d="m44.7767 32.3728c-.9715 1.1018-2.1662 1.9844-3.5047 2.5894-1.3386.605-2.7905.9185-4.2594.9197-1.469.0012-2.9214-.3099-4.2609-.9127-1.3396-.6028-2.5356-1.4836-3.5089-2.5838l-13.0603-14.2113c-.6531-.738-1.4556-1.3288-2.3543-1.7332s-1.8731-.613-2.8586-.6122c-.98554.0009-1.9596.2112-2.85763.6171s-1.69951.9981-2.3513 1.7372c-1.38897 1.5727-2.15554 3.5987-2.15554 5.6969s.76657 4.1242 2.15554 5.6968c.65167.7394 1.45308 1.3317 2.3511 1.7377.89801.4061 1.87209.6165 2.85763.6174.9855.0009 1.96-.2077 2.8588-.6121.8987-.4043 1.7012-.9952 2.3543-1.7333l2.8711-3.1141c.3011-.3375.7237-.5419 1.1752-.5683.4516-.0265.8952.1271 1.2337.4272.0523.0466.1019.0962.1486.1486.3414.3855.5299.8826.5299 1.3976s-.1885 1.0122-.5299 1.3977l-2.8629 3.1207c-.9739 1.0994-2.1703 1.9793-3.5099 2.5815-1.3396.6021-2.7919.9127-4.2606.9113-1.4687-.0015-2.92034-.3151-4.25874-.9199-1.33839-.6048-2.533-1.4871-3.50467-2.5885-2.07113-2.3433-3.21429-5.3629-3.21429-8.4903s1.14316-6.1469 3.21429-8.4903c1.81659-2.0616 4.37773-3.3172 7.12001-3.4905 2.7423-.1734 5.4412.7497 7.5029 2.5662.3212.2835.6247.5865.9087.9073l13.0581 14.2083c.6532.738 1.4558 1.3288 2.3546 1.7332.8989.4043 1.8734.6128 2.859.6119.9856-.001 1.9598-.2116 2.8578-.6177s1.6995-.9985 2.3512-1.7379c1.3899-1.572 2.1572-3.598 2.1572-5.6964s-.7673-4.1244-2.1572-5.6965c-.6043-.6849-1.3376-1.2441-2.158-1.6457-.8204-.4015-1.7118-.6375-2.6234-.6945s-1.8255.0662-2.6895.3624-1.6612.7597-2.3461 1.3641c-.2139.1889-.4162.3906-.6056.604l-2.9171 3.1743c-.1471.1679-.3258.3052-.526.4041-.2001.0988-.4178.1572-.6405.1719s-.4462-.0146-.6576-.0863-.4066-.1843-.5744-.3314c-.0565-.049-.1093-.1019-.1583-.1583-.3418-.3852-.5301-.8826-.5291-1.3975.0009-.515.1911-1.0117.5343-1.3956l2.9149-3.175c.9735-1.0994 2.1695-1.9793 3.5088-2.5814 1.3393-.6022 2.7913-.9127 4.2598-.9111 1.4684.0016 2.9197.3154 4.2577.9204 1.338.6051 2.5321 1.4877 3.5031 2.5892 2.0712 2.3433 3.2143 5.3629 3.2143 8.4903s-1.1431 6.147-3.2143 8.4903z" fill="#aaabad"/></svg>